<svg version="1.1" id="Layer_1" xmlns="http://www.w3.org/2000/svg" xmlns:xlink="http://www.w3.org/1999/xlink" x="0px" y="0px" viewBox="0 0 500 500" style="width: 154px;" xml:space="preserve" data-imageid="user-profile-96" imageName="User Profile" class="illustrations_image">
<style type="text/css">
	.st0_user-profile-96{fill:#35721C;}
	.st1_user-profile-96{fill:#F78546;}
	.st2_user-profile-96{opacity:0.63;fill:url(#Character_3_Shadow_00000007388216019431995920000007511021273097691021_);enable-background:new    ;}
	.st3_user-profile-96{fill:#2B415D;}
	.st4_user-profile-96{fill:#68E1FD;}
	.st5_user-profile-96{fill:#4B1B13;}
	.st6_user-profile-96{fill:#FFAC73;}
	.st7_user-profile-96{fill:#17283A;}
	.st8_user-profile-96{opacity:0.63;fill:url(#Character_2_Shadow_00000026859969612948750020000000654824479158877883_);enable-background:new    ;}
	.st9_user-profile-96{fill:#FFC127;}
	
		.st10_user-profile-96{opacity:0.63;fill:url(#Character_1_Shadow_00000143615555302127460180000014774466743927298489_);enable-background:new    ;}
	.st11_user-profile-96{fill:#FFFFFF;}
</style>
<path id="Base_user-profile-96" class="st0_user-profile-96" d="M30.7,276.4l169.9-98.8c2.5-1.4,5.5-1.4,8,0l254.1,145.4c3.8,2.2,5.2,7,3,10.9c-0.7,1.3-1.8,2.3-3,3&#10;&#9;l-162.5,93.8c-8.1,4.7-18.1,4.7-26.2,0L30.7,290.2c-3.8-2.2-5.2-7.1-3-10.9C28.4,278.1,29.4,277.1,30.7,276.4z"/>
<g id="Orange_Line_user-profile-96">
	<polyline class="st1_user-profile-96" points="131.9,233.4 31.9,290.8 108.4,335 246.8,257.8 &#9;"/>
	
		<ellipse transform="matrix(0.9567 -0.291 0.291 0.9567 -39.7216 62.8206)" class="st1_user-profile-96" cx="191.3" cy="164.9" rx="52.1" ry="72.5"/>
</g>
<linearGradient id="Character_3_Shadow_00000085968026661206806440000017200719639500206010_-user-profile-96" gradientUnits="userSpaceOnUse" x1="3152.1201" y1="219.2801" x2="3195.4299" y2="256.6601" gradientTransform="matrix(-1 0 0 -1 3381.1699 502)">
	<stop offset="0" style="stop-color:#FFFFFF;stop-opacity:0"/>
	<stop offset="0.99" style="stop-color:#808080"/>
</linearGradient>
<polyline id="Character_3_Shadow_user-profile-96" style="opacity:0.63;fill:url(#Character_3_Shadow_00000085968026661206806440000017200719639500206010_);enable-background:new    ;" points="&#10;&#9;141.5,248.2 214.3,291 256.5,265.3 196.9,230.5 "/>
<g id="Character_3_user-profile-96">
	<path class="st3_user-profile-96" d="M221.8,254.9c0,0-1.3-21.6-1.8-26.9c-0.4-4.8-2.1-26-15.3-32.7c-16.8-8.5-36.1-19.4-53.9-14.3&#10;&#9;&#9;c-14.5,4.1-19.4,54.2-19.2,57.6C131.8,244.5,176.7,276.2,221.8,254.9z"/>
	<path class="st4_user-profile-96 targetColor" d="M193.1,189.4c0,0,3.1,18.8-14.6,20.3c-12.4,1-9.6-9-9.6-9s-6.1,4.9-12.5,1.1s4.1-18.7,8.9-19.7&#10;&#9;&#9;S181.6,181.3,193.1,189.4z" style="fill: rgb(22, 152, 112);"/>
	<circle class="st5_user-profile-96" cx="196.9" cy="142.2" r="14"/>
	<path class="st5_user-profile-96" d="M157.1,153.8c-2.2-2.8-3.5-6.2-3.7-9.8c-0.2-1.7-0.1-3.5,0.2-5.1c0.5-2,1.7-3,3.3-4.1c1.2-0.8,2.3-1.7,3.3-2.8&#10;&#9;&#9;c0,0,36.5-7.1,40.7,14.2l0,0c0.8,6,0.3,23.9-16,31.5c-16.6,7.6-8.9-19.5-8.9-19.5"/>
	<path class="st6_user-profile-96" d="M166,184.1l21.8-10.7l-1.8,15.2c0,0-0.2,0.3-0.4,0.7c-4,3.6-10,4.7-16.1,4.3c-1.3-0.1-2.4-1.1-2.5-2.5&#10;&#9;&#9;C166.6,188.9,166.4,186.5,166,184.1z"/>
	<path class="st6_user-profile-96" d="M156.4,149.8c0,0-1.3-7.1,6.7-8.4c2.1-0.3,4.2-0.3,5.5,1.7c1.6,2.5,1.8,5.4,4.1,7.5c2.3,2,5.7,2.6,8.5,1.4&#10;&#9;&#9;c0.1,2.4-0.3,4.1-3.2,4.9S158.7,154.4,156.4,149.8z"/>
	<path class="st5_user-profile-96" d="M185.3,143c-8.7-3.1-17-4.9-26.2-3.7c-0.8,0-1.5,0.7-1.5,1.6c-0.7-3.7-1.6-13,5.9-15.9&#10;&#9;&#9;c9.4-3.6,25.2,0.9,29.6,9.4c2.2,4.2,3.2,8.9,3,13.6C193,145.7,189.1,144.4,185.3,143z"/>
	<path class="st1_user-profile-96" d="M166.5,188l0.4,3.2c0,0,14.5-0.4,16.5-12.2L166.5,188z"/>
	<path class="st6_user-profile-96" d="M156.4,149.1c0,0,0.1,14,0,19.2c-0.1,5.5,5.4,19.9,11.3,19.8c9.1,0,18.3-11,18.3-13.4c0,0,9.1-5.7,4-10.1&#10;&#9;&#9;s-5.6,3-5.6,3s-2.8-4.1-3-15C181.3,152.8,168.4,154.9,156.4,149.1z"/>
	<path class="st7_user-profile-96" d="M143.4,249.4c-0.8-0.5-1.7-1.1-2.4-1.7c0.4-10.9,1.8-21.8,4.4-32.4c0.4-1.9,3.3-1.1,2.9,0.8&#10;&#9;&#9;c-2.6,11-4.1,22.3-4.3,33.6L143.4,249.4z"/>
	<path class="st7_user-profile-96" d="M199,261.6c-0.4,0-0.8,0-1.3,0.1l-1.1-37.4c-0.1-1.9,2.9-1.9,3,0l1.1,37.2C200.2,261.5,199.6,261.5,199,261.6z&#10;&#9;&#9;"/>
	<path class="st5_user-profile-96" d="M188.2,178.1c-3.3-3.1-5.5-7.2-6.4-11.7c-1.1-7,8.2-3.8,9.7-0.8S192.5,176.5,188.2,178.1z"/>
</g>
<g id="Blue_Line_user-profile-96">
	<polyline class="st4_user-profile-96 targetColor" points="208,277 108.4,335 203.6,389.9 312.4,317 &#9;" style="fill: rgb(22, 152, 112);"/>
	<ellipse transform="matrix(0.9567 -0.291 0.291 0.9567 -53.8022 80.3094)" class="st4_user-profile-96 targetColor" cx="243.1" cy="221" rx="52.1" ry="72.5" style="fill: rgb(22, 152, 112);"/>
</g>
<linearGradient id="Character_2_Shadow_00000093879265021963531480000000171877908353660570_-user-profile-96" gradientUnits="userSpaceOnUse" x1="3086.2798" y1="152.4301" x2="3129.5898" y2="189.8102" gradientTransform="matrix(-1 0 0 -1 3381.1699 502)">
	<stop offset="0" style="stop-color:#FFFFFF;stop-opacity:0"/>
	<stop offset="0.99" style="stop-color:#808080"/>
</linearGradient>
<polyline id="Character_2_Shadow_user-profile-96" style="opacity:0.63;fill:url(#Character_2_Shadow_00000093879265021963531480000000171877908353660570_);enable-background:new    ;" points="&#10;&#9;207.3,315.1 280.1,357.8 322.3,332.2 262.7,297.4 "/>
<g id="Character_2_user-profile-96">
	<path class="st3_user-profile-96" d="M286.3,320.1c0,0-1.4-22.2-1.9-27.7c-0.5-5-2.1-26.8-15.8-33.7c-17.3-8.7-37.1-20-55.5-14.8&#10;&#9;&#9;c-14.9,4.3-20,55.8-19.8,59.3C193.6,309.4,239.8,342.1,286.3,320.1z"/>
	<path class="st4_user-profile-96 targetColor" d="M251,261.4c0,1.2-1.4,2.9-1.9,3.9c-4.4,8.4-8.3,17.3-12.5,26c-4.1,8.4-4.9,32.1-5.4,33.6&#10;&#9;&#9;c0,0.2-16.9-6.1-17.1-6.1s-1.4-12.2-1.4-13c-0.2-13.5-1.2-20.4,1.3-30.8c1.8-7.4,5-12.4,6.7-19.7c0.8-3.5,1.4-7.7,3.1-10.9&#10;&#9;&#9;C225.7,240.9,251,253.5,251,261.4z" style="fill: rgb(22, 152, 112);"/>
	<path class="st7_user-profile-96" d="M258.6,327.5c-0.5,0-0.9,0.1-1.4,0.1c0.1-9.3,0.1-18.6,0.1-27.9c0-0.8,0.7-1.5,1.5-1.5c0.8,0,1.5,0.7,1.5,1.5&#10;&#9;&#9;c0.1,9.2,0.1,18.4-0.1,27.7L258.6,327.5z"/>
	<path class="st7_user-profile-96" d="M208.2,315.9L208.2,315.9c-0.1-0.1-0.2-0.1-0.3-0.1l-0.8-0.5l-1-0.5l-0.8-0.4c0-11,0.4-22.1,1-33.1&#10;&#9;&#9;c0.1-2,3.2-2,3.1,0c-0.7,11.3-1,22.7-1,34.1C208.4,315.5,208.3,315.7,208.2,315.9z"/>
	<path class="st3_user-profile-96" d="M223.8,244.4c0,0-3.3,22.6-1.4,24.9l7.7-6.1l4.6,9.6l19.2-16.7L223.8,244.4z"/>
	<path class="st6_user-profile-96" d="M220.4,209.7c0,0,0.1,14.4,0,19.8c-0.1,5.6,2.3,20.9,11.6,20.4s18.8-11.3,18.8-13.8c0,0,9.4-5.9,4.1-10.4&#10;&#9;&#9;s-5.7,3.1-5.7,3.1s-2.9-4.2-3.1-15.4C246.1,213.6,232.8,215.6,220.4,209.7z"/>
	<path class="st6_user-profile-96" d="M250.4,251.2c-4.7,4.4-12.4,5.2-19.6,4.2c-1.1-0.1-2-0.9-2.1-2c-0.1-2.2-0.2-4.4-0.4-6.6l24.5-12l-1.9,15.6&#10;&#9;&#9;C250.8,250.4,250.7,250.7,250.4,251.2z"/>
	<path class="st1_user-profile-96" d="M233.6,255.6c-1-0.1-1.9-0.2-2.9-0.3c-1.1-0.1-1.9-0.9-2.1-2c0-1.1-0.1-2.3-0.2-3.4c5.2,0,14.4-1.2,19.3-10.8&#10;&#9;&#9;C246.5,246.8,241,253.2,233.6,255.6z"/>
	<path class="st5_user-profile-96" d="M282.3,250c-8.7-9.6-12.9-28.6-12.9-28.6l-0.1,0.1c-2.5-20.9-17.4-27.3-30.5-28c-13.2-0.8-23,4.2-23.7,13&#10;&#9;&#9;s5.2,12.5,5.2,12.5s22.1,6.4,23.6,3.7s1.7-15.4,3,1.2c0.4,5.5,0.3,11,0.3,16.4c0,6.7,0.6,13.3,1.7,19.9c0.8,4.9,1.5,10.4,6.3,13.1&#10;&#9;&#9;c7.3,4.1,17.7,4.1,24.9-0.3c2.5,12.3,4.3,24.7,5.4,37.1c0,0,15.2-1,17-23.6S291,259.6,282.3,250z"/>
</g>
<g id="Yellow_Line_user-profile-96">
	<ellipse transform="matrix(0.9567 -0.291 0.291 0.9567 -73.2271 101.7706)" class="st9_user-profile-96" cx="305.5" cy="297" rx="52.1" ry="72.5"/>
	<path class="st9_user-profile-96" d="M359.7,309.8v70.3l-83.7,51.2l-13.9-7.6l-58.5-33.8l70.5-48.4"/>
</g>
<linearGradient id="Character_1_Shadow_00000038378765707324503380000003207424773708449955_-user-profile-96" gradientUnits="userSpaceOnUse" x1="3037.739" y1="94.241" x2="3078.3591" y2="129.311" gradientTransform="matrix(-1 0 0 -1 3381.1699 502)">
	<stop offset="0" style="stop-color:#FFFFFF;stop-opacity:0"/>
	<stop offset="0.99" style="stop-color:#808080"/>
</linearGradient>
<polyline id="Character_1_Shadow_user-profile-96" style="opacity:0.63;fill:url(#Character_1_Shadow_00000038378765707324503380000003207424773708449955_);enable-background:new    ;" points="&#10;&#9;260.4,376.5 326.8,415.4 370.1,390.4 315.8,358.7 "/>
<g id="Character_1_user-profile-96">
	<path class="st4_user-profile-96 targetColor" d="M350.6,387.9c0,0-1.4-22.2-1.9-27.7c-0.5-5-2.1-26.8-15.8-33.7c-17.3-8.7-37.1-20-55.5-14.8&#10;&#9;&#9;c-14.9,4.3-20,55.8-19.8,59.3C257.9,377.2,304.1,409.8,350.6,387.9z" style="fill: rgb(22, 152, 112);"/>
	<path class="st5_user-profile-96" d="M285.5,282.4c0,0-3.7-3-5.8-9.9s1.4-17,8.9-17.9s9.8,2.9,9.8,2.9s28-4.9,32.3,17l0,0c0.8,6.1,4.1,28.4-14,33.3&#10;&#9;&#9;s-11.7-21-11.7-21"/>
	<path class="st6_user-profile-96" d="M284.7,277.5c0,0,0.1,14.4,0,19.8c-0.1,5.6,2.3,20.9,11.6,20.4s18.8-11.3,18.8-13.8c0,0,9.4-5.9,4.1-10.4&#10;&#9;&#9;s-5.7,3.1-5.7,3.1s-2.9-4.2-3.1-15.4C310.4,281.3,297.1,283.4,284.7,277.5z"/>
	<path class="st6_user-profile-96" d="M314.7,318.9c-4.7,4.4-12.5,5.2-19.6,4.2c-1.1-0.1-2-0.9-2.1-2c-0.1-2.2-0.2-4.4-0.4-6.5l24.5-12l-1.9,15.6&#10;&#9;&#9;C315.1,318.2,315,318.5,314.7,318.9z"/>
	<path class="st1_user-profile-96" d="M297.9,323.4c-1-0.1-1.9-0.2-2.8-0.3c-1.1-0.1-2-0.9-2.1-2c0-1.1-0.1-2.3-0.2-3.4c5.2,0,14.4-1.2,19.3-10.8&#10;&#9;&#9;C310.8,314.6,305.3,320.9,297.9,323.4z"/>
	<path class="st11_user-profile-96" d="M317,313.9c-2,1.3-4,2.6-6.1,3.8c-2.9,1.8-6,3.3-9.1,4.5c-2.7,0.9-7.3,2.2-8.9-1.1c-0.1-0.6-0.2-1.2-0.1-1.8&#10;&#9;&#9;c0-0.7,0-1.5-0.1-2.2l0,0c-1.2-0.5-2.3-1.2-3.1-2.3c-0.1-0.1-0.1-0.2-0.1-0.3l0,0c0,0-6.4,18.4-5.4,19.3s8.7-3.6,8.7-3.6&#10;&#9;&#9;s3.3,6.8,4.6,7.5s18.3-14.2,20.5-18.5L317,313.9z"/>
	<path class="st1_user-profile-96" d="M286.2,332.8c-0.4,0.1-1.2,4.1,0,7.8c0,0,3.2,1.4,3.8,1.2s5.8-6.1,5.6-6.4s-3.2-5.7-3.2-5.7L286.2,332.8z"/>
	<path class="st1_user-profile-96" d="M286.2,340.6c0,0-11.3,44.1-10.6,44.5s10.6,5.5,14.1,5.7l0.2-49"/>
</g>
</svg>